# xmcd CD database file
#
# Track frame offsets:
#	150
#	17380
#	35362
#	54900
#	76135
#	96092
#	111805
#	132922
#	144855
#	165892
#	188457
#
# Disc length: 2696 seconds
#
# Revision: 6
# Processed by: cddbd v1.5.2PL0 Copyright (c) Steve Scherf et al.
# Submitted via: CDex 1.70beta2
#
DISCID=700a860b
DTITLE=小林 桂 - Wonderland - Kei Sings X'mas
DYEAR=2001
DGENRE=Jazz
TTITLE0=White Christmas
TTITLE1=The Christmas Song
TTITLE2=Rudolph The Red Nosed Reindeer
TTITLE3=Winter Wonderland
TTITLE4=Merry Christmas Darling
TTITLE5=Let It Snow! Let It Snow! Let It Snow!
TTITLE6=Have Yourself A Merry Little Christmas
TTITLE7=I'll be Home for Christmas
TTITLE8=What Are You Doing New Years Eve?
TTITLE9=Santa Claus Is COming To Town
TTITLE10=Christams Time Is Here
EXTD=YEAR: 2001
EXTT0=
EXTT1=
EXTT2=
EXTT3=
EXTT4=
EXTT5=
EXTT6=
EXTT7=
EXTT8=
EXTT9=
EXTT10=
PLAYORDER=
